<?xml version="1.0" standalone="no"?>
<!DOCTYPE svg PUBLIC "-//W3C//DTD SVG 20010904//EN"
 "http://www.w3.org/TR/2001/REC-SVG-20010904/DTD/svg10.dtd">
<svg version="1.0" xmlns="http://www.w3.org/2000/svg"
 width="18.000000pt" height="18.000000pt" viewBox="0 0 18.000000 18.000000"
 preserveAspectRatio="xMidYMid meet">

<g transform="translate(0.000000,18.000000) scale(0.100000,-0.100000)"
fill="#000000" stroke="none">
<path d="M80 165 c0 -18 -47 -65 -65 -65 -8 0 -15 -4 -15 -10 0 -5 7 -10 15
-10 18 0 65 -47 65 -65 0 -8 5 -15 10 -15 6 0 10 7 10 15 0 18 47 65 65 65 8
0 15 5 15 10 0 6 -7 10 -15 10 -18 0 -65 47 -65 65 0 8 -4 15 -10 15 -5 0 -10
-7 -10 -15z m45 -75 c0 -33 -2 -35 -35 -35 -29 0 -36 4 -38 23 -6 40 5 54 40
50 30 -3 33 -6 33 -38z"/>
</g>
</svg>
