<?xml version="1.0" standalone="no"?><!DOCTYPE svg PUBLIC "-//W3C//DTD SVG 1.1//EN" "http://www.w3.org/Graphics/SVG/1.1/DTD/svg11.dtd"><svg class="icon" width="32px" height="32.00px" viewBox="0 0 1024 1024" version="1.1" xmlns="http://www.w3.org/2000/svg"><path fill="#ffffff" d="M940.671181 133.12H150.143181c-43.008 0-77.824 32.768-83.968 73.728L0.639181 796.672c-6.144 49.152 32.768 92.16 83.968 92.16h790.528c43.008 0 77.824-32.768 83.968-73.728L1024.639181 227.328c4.096-51.2-32.768-94.208-83.968-94.208z m-790.528 81.92h624.64c-4.096 16.384-18.432 49.152-73.728 102.4-26.624 24.576-67.584 47.104-116.736 73.728-47.104 24.576-100.352 53.248-151.552 90.112-129.024-96.256-245.76-143.36-294.912-161.792l12.288-104.448c-2.048 2.048 0 0 0 0zM82.559181 808.96c0-2.048 0-2.048 0 0l47.104-423.936c49.152 18.432 145.408 61.44 251.904 139.264-73.728 65.536-137.216 153.6-161.792 284.672H82.559181c2.048 0 0 0 0 0z m348.16-247.808c77.824 63.488 157.696 143.36 229.376 247.808H283.263181C307.839181 696.32 363.135181 618.496 430.719181 561.152z m446.464 245.76s-2.048 2.048 0 0l-141.312 2.048c-77.824-120.832-165.888-215.04-251.904-286.72 43.008-30.72 88.064-53.248 131.072-75.776 53.248-28.672 98.304-53.248 131.072-83.968 71.68-67.584 92.16-116.736 94.208-147.456h104.448v2.048l-67.584 589.824z" /></svg>