<?xml version="1.0" standalone="no"?><!DOCTYPE svg PUBLIC "-//W3C//DTD SVG 1.1//EN" "http://www.w3.org/Graphics/SVG/1.1/DTD/svg11.dtd"><svg t="1567414586406" class="icon" viewBox="0 0 1024 1024" version="1.1" xmlns="http://www.w3.org/2000/svg" p-id="1997" width="64" height="64" xmlns:xlink="http://www.w3.org/1999/xlink"><defs><style type="text/css"></style></defs><path d="M587.471196 512.668963L984.956883 115.061646c20.068892-20.068892 20.068892-53.030526 0-73.221047l-2.189333-2.189334c-20.068892-20.068892-53.030526-20.068892-73.221048 0L512.060815 437.7451 114.575128 39.529635C94.384606 19.460744 61.422972 19.460744 41.35408 39.529635l-2.189334 2.189334c-20.55541 20.068892-20.55541 53.030526 0 73.221048l397.607317 397.728946-397.607317 397.485687c-20.068892 20.068892-20.068892 53.030526 0 73.221048l2.189334 2.189333c20.068892 20.068892 53.030526 20.068892 73.221048 0l397.607316-397.607316 397.607317 397.607316c20.068892 20.068892 53.030526 20.068892 73.221048 0l2.189334-2.189333c20.068892-20.068892 20.068892-53.030526 0-73.221048l-397.728947-397.485687z m0 0" fill="#515151" p-id="1998"></path></svg>