<?xml version="1.0" standalone="no"?><!DOCTYPE svg PUBLIC "-//W3C//DTD SVG 1.1//EN" "http://www.w3.org/Graphics/SVG/1.1/DTD/svg11.dtd"><svg class="icon" width="32px" height="32.00px" viewBox="0 0 1024 1024" version="1.1" xmlns="http://www.w3.org/2000/svg"><path fill="#ffffff" d="M960.512 909.312l-122.88-122.88C901.12 696.32 894.976 571.392 813.056 491.52c-88.064-88.064-233.472-88.064-323.584 0-88.064 88.064-88.064 233.472 0 323.584 81.92 81.92 206.848 88.064 294.912 24.576l122.88 122.88c14.336 14.336 36.864 14.336 51.2 0 18.432-16.384 18.432-38.912 2.048-53.248z m-198.656-147.456c-61.44 61.44-157.696 61.44-219.136 0s-61.44-157.696 0-219.136 157.696-61.44 219.136 0 61.44 157.696 0 219.136zM352.256 897.024H161.792c-20.48 0-36.864-16.384-36.864-36.864V161.792c0-20.48 16.384-36.864 36.864-36.864h567.296c20.48 0 36.864 16.384 36.864 36.864v149.504c0 20.48 16.384 36.864 36.864 36.864s36.864-16.384 36.864-36.864V161.792c0-61.44-49.152-110.592-110.592-110.592H161.792c-61.44 0-110.592 49.152-110.592 110.592V860.16c0 61.44 49.152 110.592 110.592 110.592h190.464c20.48 0 36.864-16.384 36.864-36.864s-16.384-36.864-36.864-36.864z" /></svg>