<svg xmlns="http://www.w3.org/2000/svg" xmlns:xlink="http://www.w3.org/1999/xlink" fill="none" version="1.1" width="13.333436012268066" height="10" viewBox="0 0 13.333436012268066 10"><g><path d="M6.66672,10C4.22222,10,2.04139,8.45733,0.129052,5.44367C-0.0430173,5.17291,-0.0430173,4.82709,0.129052,4.55633C2.04139,1.54267,4.22222,0,6.66672,0C9.11122,0,11.2921,1.54267,13.2044,4.55633C13.3765,4.82709,13.3765,5.17291,13.2044,5.44367C11.2921,8.45733,9.11122,10,6.66672,10ZM6.66672,1C4.64305,1,2.76889,2.31017,1.03989,5C2.76889,7.68983,4.64305,9,6.66672,9C8.69038,9,10.5646,7.68983,12.2936,5C10.5646,2.31017,8.69038,1,6.66672,1ZM6.66672,7.33333C5.36655,7.33333,4.31255,6.28867,4.31255,5C4.31255,3.71133,5.36655,2.66667,6.66672,2.66667C7.96689,2.66667,9.02089,3.71133,9.02089,5C9.02089,6.28867,7.96689,7.33333,6.66672,7.33333ZM6.66672,6.33333C7.40972,6.33333,8.01205,5.73633,8.01205,5C8.01205,4.26367,7.40972,3.66667,6.66672,3.66667C5.92372,3.66667,5.32139,4.26367,5.32139,5C5.32139,5.73633,5.92372,6.33333,6.66672,6.33333Z" fill="#000000" fill-opacity="1"/></g></svg>