<svg xmlns="http://www.w3.org/2000/svg" xmlns:xlink="http://www.w3.org/1999/xlink" fill="none" version="1.1" width="13.313334465026855" height="13.118332862854004" viewBox="0 0 13.313334465026855 13.118332862854004"><g><path d="M6.65333,8.77833C6.44,8.77833,6.23333,8.725,6.04667,8.61167L0.6,5.43167C0.226667,5.21167,0,4.825,0,4.385C0,3.95167,0.226667,3.55833,0.6,3.345L6.04667,0.165C6.42,-0.0550001,6.88667,-0.0550001,7.26667,0.165L12.7133,3.345C13.0867,3.565,13.3133,3.95167,13.3133,4.385C13.3133,4.81833,13.0867,5.21167,12.7133,5.425L7.26667,8.605C7.07333,8.725,6.86667,8.77833,6.65333,8.77833ZM6.72,7.465L6.72667,7.465L6.72,7.465ZM1.45333,4.39167L6.65333,7.425L11.8533,4.39167L6.65333,1.35833L1.45333,4.39167ZM6.65333,13.1183C6.44,13.1183,6.23333,13.065,6.04667,12.9517L0.6,9.77167C0.28036,9.58661,0.172625,9.17662,0.36,8.85833C0.546667,8.53833,0.953333,8.43167,1.27333,8.61833L6.65333,11.765L12.04,8.61833C12.3583,8.43096,12.7683,8.53869,12.9533,8.85833C13.14,9.17833,13.0333,9.585,12.7133,9.77167L7.26667,12.9517C7.07333,13.065,6.86667,13.1183,6.65333,13.1183ZM6.65333,10.9517C6.44,10.9517,6.23333,10.8983,6.04667,10.785L0.6,7.605C0.280359,7.41994,0.172624,7.00995,0.36,6.69167C0.546667,6.37167,0.953333,6.265,1.27333,6.45167L6.65333,9.59833L12.04,6.45167C12.3583,6.26429,12.7683,6.37203,12.9533,6.69167C13.14,7.01167,13.0333,7.41833,12.7133,7.605L7.26667,10.785C7.07333,10.8983,6.86667,10.9517,6.65333,10.9517Z" fill="#3D3D3D" fill-opacity="1"/></g></svg>